<svg id="Layer_1" data-name="Layer 1" xmlns="http://www.w3.org/2000/svg" xmlns:xlink="http://www.w3.org/1999/xlink" viewBox="0 0 1323 826.42"><defs><style>.cls-1,.cls-10{fill:none;stroke:#7bcecc;stroke-miterlimit:10;}.cls-1{stroke-width:4px;}.cls-2{font-size:24px;font-family:MyriadPro-Regular, Myriad Pro;}.cls-3{letter-spacing:0em;}.cls-4{letter-spacing:-0.01em;}.cls-5{letter-spacing:0em;}.cls-6{letter-spacing:-0.01em;}.cls-7{letter-spacing:0em;}.cls-8{letter-spacing:0.02em;}.cls-9{letter-spacing:-0.01em;}.cls-10{stroke-width:3px;}.cls-11{letter-spacing:0em;}.cls-12{letter-spacing:0.02em;}.cls-13{letter-spacing:0.01em;}.cls-14{letter-spacing:0em;}.cls-15{letter-spacing:0em;}.cls-16{letter-spacing:-0.02em;}.cls-17{letter-spacing:-0.01em;}.cls-18{letter-spacing:0.01em;}.cls-19{letter-spacing:0em;}.cls-20{letter-spacing:0em;}.cls-21{letter-spacing:-0.05em;}.cls-22{letter-spacing:-0.01em;}.cls-23{letter-spacing:-0.03em;}.cls-24{letter-spacing:0em;}</style><image id="image" width="290" height="493" xlink:href="paper-airplane.png"/></defs><image width="1424" height="2136" transform="translate(0 65) scale(0.28)" xlink:href="profile-pic.jpg"/><text x="-21" y="-6"/><text x="-21" y="-6"/><text x="-21" y="-6"/><rect class="cls-1" x="446.5" y="329.5" width="247" height="232" rx="44.52"/><text class="cls-2" transform="translate(475.68 382.26)"><tspan class="cls-3">W</tspan><tspan x="20.18" y="0">he</tspan><tspan class="cls-4" x="45.53" y="0">r</tspan><tspan class="cls-5" x="53.14" y="0">e I </tspan><tspan class="cls-6" x="81.07" y="0">C</tspan><tspan x="94.82" y="0">all Home:</tspan><tspan class="cls-6" x="30.47" y="28.8">T</tspan><tspan class="cls-7" x="42.23" y="28.8">hessaloni</tspan><tspan class="cls-8" x="135.92" y="28.8">k</tspan><tspan x="147.59" y="28.8">i, </tspan><tspan x="59.42" y="57.6">G</tspan><tspan class="cls-4" x="74.93" y="57.6">r</tspan><tspan x="82.54" y="57.6">ee</tspan><tspan class="cls-9" x="106.58" y="57.6">c</tspan><tspan x="117.19" y="57.6">e</tspan></text><text x="-21" y="-6"/><rect class="cls-10" x="841.5" y="496.5" width="247" height="232" rx="44.52"/><text class="cls-2" transform="translate(894.88 548.26)"><tspan class="cls-11">A</tspan><tspan class="cls-4" x="14.62" y="0">r</tspan><tspan x="22.22" y="0">ea of </tspan><tspan class="cls-11" x="76.18" y="0">S</tspan><tspan x="87.94" y="0">tud</tspan><tspan class="cls-12" x="122.64" y="0">y</tspan><tspan x="134.52" y="0">:</tspan><tspan x="-38.66" y="28.8">Ele</tspan><tspan class="cls-13" x="-9.17" y="28.8">c</tspan><tspan x="1.9" y="28.8">t</tspan><tspan class="cls-14" x="9.84" y="28.8">r</tspan><tspan x="17.78" y="28.8">ical En</tspan><tspan class="cls-9" x="81.6" y="28.8">g</tspan><tspan x="94.87" y="28.8">inee</tspan><tspan class="cls-15" x="137.85" y="28.8">r</tspan><tspan x="145.8" y="28.8">ing </tspan><tspan x="-16.98" y="57.6">&amp; </tspan><tspan class="cls-16" x="2.63" y="57.6">P</tspan><tspan class="cls-4" x="15.01" y="57.6">r</tspan><tspan x="22.62" y="57.6">odu</tspan><tspan class="cls-13" x="62.56" y="57.6">c</tspan><tspan x="73.62" y="57.6">t </tspan><tspan class="cls-14" x="86.65" y="57.6">D</tspan><tspan x="102.73" y="57.6">esi</tspan><tspan class="cls-17" x="129.88" y="57.6">g</tspan><tspan x="143.15" y="57.6">n</tspan></text><image width="512" height="512" transform="translate(926 626) scale(0.15)" xlink:href="../icons/engineering.png"/><image width="512" height="512" transform="translate(715 138) scale(0.16)" xlink:href="../icons/sushi.png"/><text x="-21" y="-6"/><text class="cls-2" transform="translate(1119.21 279.97)"><tspan class="cls-18">M</tspan><tspan x="19.44" y="0">ost </tspan><tspan class="cls-9" x="55.15" y="0">U</tspan><tspan x="70.53" y="0">sed </tspan><tspan class="cls-19" x="110.69" y="0">A</tspan><tspan class="cls-20" x="125.3" y="0">pp:</tspan><tspan x="43.52" y="28.8">Spotify</tspan></text><rect class="cls-10" x="1074.5" y="228.5" width="247" height="232" rx="44.52"/><rect class="cls-10" x="683.5" y="30.5" width="247" height="232" rx="44.52"/><text class="cls-2" transform="translate(732.35 82.21)"><tspan class="cls-21">F</tspan><tspan class="cls-22" x="10.61" y="0">a</tspan><tspan class="cls-4" x="21.98" y="0">v</tspan><tspan x="33.29" y="0">o</tspan><tspan class="cls-15" x="46.46" y="0">r</tspan><tspan class="cls-7" x="54.41" y="0">i</tspan><tspan class="cls-9" x="60.02" y="0">t</tspan><tspan x="67.82" y="0">e </tspan><tspan class="cls-23" x="84.94" y="0">F</tspan><tspan x="95.88" y="0">oods:</tspan><tspan x="-23.42" y="28.8">Sushi &amp; </tspan><tspan class="cls-24" x="54.77" y="28.8">M</tspan><tspan x="74.14" y="28.8">ush</tspan><tspan class="cls-4" x="110.18" y="28.8">r</tspan><tspan x="117.79" y="28.8">ooms</tspan></text><use transform="matrix(-0.52, 0.06, 0.05, 0.47, 578.77, 97)" xlink:href="#image"/><use transform="matrix(-0.28, -0.47, 0.43, -0.25, 623.92, 756.99)" xlink:href="#image"/><use transform="matrix(-0.13, 0.54, -0.49, -0.12, 1022.68, 331.11)" xlink:href="#image"/><use transform="matrix(-0.4, 0.34, 0.3, 0.36, 1081.53, 0)" xlink:href="#image"/><image width="512" height="512" transform="translate(531 465) scale(0.15)" xlink:href="../icons/map.png"/><image width="512" height="512" transform="translate(823 146) scale(0.15)" xlink:href="../icons/mushroom.png"/><image width="512" height="512" transform="translate(1159 332) scale(0.16)" xlink:href="../icons/spotify.png"/></svg>